<?xml version="1.0" encoding="UTF-8"?>
<svg xmlns="http://www.w3.org/2000/svg" xmlns:xlink="http://www.w3.org/1999/xlink" width="96pt" height="96pt" viewBox="0 0 96 96" version="1.1">
<g id="surface21681968">
<path style=" stroke:none;fill-rule:nonzero;fill:rgb(40.784314%,3.137255%,65.882353%);fill-opacity:1;" d="M 83.203125 7.679688 L 12.800781 7.679688 C 9.976562 7.679688 7.679688 9.976562 7.679688 12.800781 L 7.679688 83.199219 C 7.679688 86.023438 9.976562 88.320312 12.800781 88.320312 L 83.199219 88.320312 C 86.023438 88.320312 88.320312 86.023438 88.320312 83.203125 L 88.320312 12.800781 C 88.320312 9.976562 86.023438 7.679688 83.203125 7.679688 Z M 51.839844 69.472656 C 51.839844 77.144531 47.339844 80.640625 40.769531 80.640625 C 34.828125 80.640625 30.546875 76.65625 28.800781 72.960938 L 34.835938 69.308594 C 36 71.371094 37.769531 72.960938 40.320312 72.960938 C 42.757812 72.960938 44.160156 72.007812 44.160156 68.300781 L 44.160156 44.160156 L 51.839844 44.160156 Z M 68.496094 80.640625 C 61.695312 80.640625 57.832031 77.210938 55.679688 72.960938 L 61.441406 69.121094 C 63.007812 71.683594 64.71875 74.136719 68.332031 74.136719 C 71.371094 74.136719 72.960938 72.621094 72.960938 70.523438 C 72.960938 68.015625 71.308594 67.125 67.972656 65.664062 L 66.140625 64.875 C 60.855469 62.625 57.335938 59.804688 57.335938 53.835938 C 57.335938 48.34375 61.53125 44.160156 68.070312 44.160156 C 72.726562 44.160156 76.074219 45.78125 78.488281 50.023438 L 72.789062 53.691406 C 71.527344 51.433594 70.175781 50.550781 68.070312 50.550781 C 65.925781 50.550781 64.566406 51.914062 64.566406 53.691406 C 64.566406 55.890625 65.925781 56.773438 69.066406 58.140625 L 70.898438 58.925781 C 77.128906 61.589844 80.640625 64.3125 80.640625 70.433594 C 80.640625 77.023438 75.457031 80.640625 68.496094 80.640625 Z M 68.496094 80.640625 "/>
</g>
</svg>
