<?xml version="1.0" encoding="UTF-8"?>
<svg xmlns="http://www.w3.org/2000/svg" xmlns:xlink="http://www.w3.org/1999/xlink" width="96pt" height="96pt" viewBox="0 0 96 96" version="1.1">
<g id="surface21685062">
<path style=" stroke:none;fill-rule:nonzero;fill:rgb(40.784314%,3.137255%,65.882353%);fill-opacity:1;" d="M 56.398438 48 C 56.398438 52.644531 52.644531 56.398438 48 56.398438 C 43.355469 56.398438 39.601562 52.644531 39.601562 48 C 39.601562 43.355469 43.355469 39.601562 48 39.601562 C 52.644531 39.601562 56.398438 43.355469 56.398438 48 Z M 56.398438 48 "/>
<path style=" stroke:none;fill-rule:nonzero;fill:rgb(27.843137%,53.333333%,78.039216%);fill-opacity:1;" d="M 48 57.601562 C 42.707031 57.601562 38.398438 53.292969 38.398438 48 C 38.398438 42.707031 42.707031 38.398438 48 38.398438 C 53.292969 38.398438 57.601562 42.707031 57.601562 48 C 57.601562 53.292969 53.292969 57.601562 48 57.601562 Z M 48 40.800781 C 44.03125 40.800781 40.800781 44.03125 40.800781 48 C 40.800781 51.96875 44.03125 55.199219 48 55.199219 C 51.96875 55.199219 55.199219 51.96875 55.199219 48 C 55.199219 44.03125 51.96875 40.800781 48 40.800781 Z M 48 40.800781 "/>
<path style=" stroke:none;fill-rule:nonzero;fill:rgb(40.784314%,3.137255%,65.882353%);fill-opacity:1;" d="M 94.800781 48 C 94.800781 41.289062 87.8125 35.441406 76.820312 31.710938 C 78.203125 25.300781 78.390625 19.578125 77.21875 15.195312 C 76.238281 11.542969 74.382812 8.914062 71.707031 7.390625 C 70.097656 6.472656 68.257812 6.003906 66.238281 6.003906 C 60.941406 6.003906 54.496094 9.367188 48.003906 15.101562 C 41.511719 9.363281 35.0625 6 29.761719 6 C 27.738281 6 25.902344 6.464844 24.289062 7.386719 C 21.613281 8.914062 19.757812 11.542969 18.78125 15.199219 C 17.605469 19.582031 17.796875 25.304688 19.175781 31.710938 C 8.1875 35.441406 1.199219 41.292969 1.199219 48 C 1.199219 54.707031 8.1875 60.558594 19.179688 64.285156 C 17.796875 70.695312 17.605469 76.414062 18.78125 80.796875 C 19.757812 84.457031 21.617188 87.085938 24.296875 88.613281 C 25.90625 89.53125 27.746094 90 29.765625 90 C 35.066406 90 41.511719 86.636719 48.003906 80.898438 C 54.492188 86.628906 60.9375 89.992188 66.234375 89.992188 C 66.238281 89.992188 66.238281 89.992188 66.238281 89.992188 C 68.257812 89.992188 70.097656 89.527344 71.710938 88.609375 C 74.382812 87.082031 76.238281 84.453125 77.214844 80.800781 C 78.390625 76.417969 78.199219 70.695312 76.820312 64.289062 C 87.808594 60.558594 94.800781 54.710938 94.800781 48 Z M 69.332031 11.5625 C 70.851562 12.429688 71.945312 14.070312 72.582031 16.441406 C 73.542969 20.03125 73.355469 24.863281 72.203125 30.335938 C 68.371094 29.335938 64.179688 28.574219 59.703125 28.085938 C 57.039062 24.480469 54.257812 21.234375 51.445312 18.386719 C 57.199219 13.378906 62.480469 10.808594 66.238281 10.808594 C 67.414062 10.808594 68.453125 11.0625 69.332031 11.5625 Z M 61.882812 55.890625 C 60.3125 58.570312 58.703125 61.054688 57.074219 63.375 C 54.183594 63.625 51.152344 63.761719 47.996094 63.761719 C 44.839844 63.761719 41.808594 63.625 38.914062 63.375 C 37.285156 61.054688 35.675781 58.570312 34.109375 55.890625 C 32.582031 53.273438 31.199219 50.628906 29.953125 48 C 31.199219 45.371094 32.582031 42.726562 34.109375 40.109375 C 35.679688 37.429688 37.292969 34.945312 38.921875 32.625 C 41.8125 32.371094 44.84375 32.234375 48 32.234375 C 51.15625 32.234375 54.183594 32.371094 57.074219 32.625 C 58.703125 34.945312 60.3125 37.429688 61.882812 40.109375 C 63.410156 42.726562 64.796875 45.371094 66.039062 47.996094 C 64.796875 50.628906 63.410156 53.273438 61.882812 55.890625 Z M 68.539062 53.742188 C 69.523438 56.226562 70.355469 58.664062 71.039062 61.023438 C 68.660156 61.644531 66.101562 62.171875 63.371094 62.597656 C 64.277344 61.199219 65.167969 59.777344 66.027344 58.308594 C 66.914062 56.792969 67.742188 55.265625 68.539062 53.742188 Z M 48 74.359375 C 46.25 72.589844 44.480469 70.625 42.707031 68.429688 C 44.445312 68.511719 46.203125 68.5625 48 68.5625 C 49.792969 68.5625 51.550781 68.511719 53.289062 68.429688 C 51.519531 70.625 49.75 72.589844 48 74.359375 Z M 32.625 62.597656 C 29.898438 62.171875 27.335938 61.644531 24.960938 61.023438 C 25.644531 58.664062 26.472656 56.230469 27.457031 53.742188 C 28.253906 55.265625 29.082031 56.792969 29.964844 58.308594 C 30.824219 59.777344 31.71875 61.199219 32.625 62.597656 Z M 27.457031 42.257812 C 26.472656 39.769531 25.644531 37.335938 24.960938 34.976562 C 27.335938 34.355469 29.898438 33.828125 32.625 33.402344 C 31.722656 34.800781 30.828125 36.222656 29.96875 37.691406 C 29.082031 39.207031 28.253906 40.734375 27.457031 42.257812 Z M 48.003906 21.644531 C 49.753906 23.410156 51.519531 25.375 53.289062 27.570312 C 51.550781 27.488281 49.792969 27.4375 48 27.4375 C 46.207031 27.4375 44.449219 27.488281 42.710938 27.570312 C 44.480469 25.375 46.253906 23.410156 48.003906 21.644531 Z M 66.027344 37.691406 C 65.167969 36.21875 64.277344 34.796875 63.371094 33.402344 C 66.101562 33.824219 68.660156 34.355469 71.039062 34.972656 C 70.355469 37.335938 69.523438 39.769531 68.539062 42.257812 C 67.742188 40.734375 66.914062 39.207031 66.027344 37.691406 Z M 23.417969 16.441406 C 24.054688 14.070312 25.148438 12.425781 26.667969 11.554688 C 27.546875 11.054688 28.585938 10.800781 29.761719 10.800781 C 33.519531 10.800781 38.804688 13.371094 44.558594 18.386719 C 41.746094 21.234375 38.960938 24.480469 36.296875 28.085938 C 31.820312 28.578125 27.625 29.339844 23.796875 30.339844 C 22.644531 24.863281 22.453125 20.03125 23.417969 16.441406 Z M 6 48 C 6 43.851562 11.355469 39.441406 20.359375 36.34375 C 21.445312 40.097656 22.890625 44.019531 24.671875 48 C 22.890625 51.980469 21.445312 55.902344 20.359375 59.65625 C 11.355469 56.558594 6 52.148438 6 48 Z M 29.761719 85.199219 C 28.585938 85.199219 27.542969 84.945312 26.671875 84.449219 C 25.144531 83.578125 24.050781 81.933594 23.417969 79.558594 C 22.453125 75.96875 22.644531 71.136719 23.796875 65.664062 C 27.625 66.664062 31.816406 67.425781 36.292969 67.914062 C 38.960938 71.523438 41.742188 74.769531 44.558594 77.617188 C 38.804688 82.628906 33.519531 85.199219 29.761719 85.199219 Z M 72.578125 79.558594 C 71.941406 81.929688 70.851562 83.570312 69.328125 84.4375 C 68.453125 84.9375 67.410156 85.191406 66.234375 85.191406 C 62.476562 85.191406 57.195312 82.621094 51.441406 77.617188 C 54.253906 74.765625 57.035156 71.519531 59.699219 67.914062 C 64.175781 67.425781 68.367188 66.664062 72.195312 65.664062 C 73.351562 71.136719 73.539062 75.96875 72.578125 79.558594 Z M 75.636719 59.660156 C 74.550781 55.902344 73.105469 51.980469 71.324219 48 C 73.105469 44.019531 74.550781 40.097656 75.636719 36.339844 C 84.644531 39.4375 90 43.851562 90 48 C 90 52.148438 84.644531 56.5625 75.636719 59.660156 Z M 75.636719 59.660156 "/>
<path style=" stroke:none;fill-rule:nonzero;fill:rgb(27.843137%,53.333333%,78.039216%);fill-opacity:1;" d="M 29.765625 91.199219 C 27.53125 91.199219 25.492188 90.679688 23.699219 89.660156 C 20.730469 87.960938 18.683594 85.085938 17.621094 81.109375 C 16.488281 76.878906 16.550781 71.355469 17.789062 65.070312 C 6.464844 61.007812 0 54.820312 0 48 C 0 41.179688 6.464844 34.992188 17.789062 30.925781 C 16.546875 24.644531 16.488281 19.117188 17.621094 14.890625 C 18.683594 10.914062 20.730469 8.039062 23.695312 6.34375 C 29.742188 2.890625 38.523438 5.398438 48.003906 13.515625 C 57.480469 5.40625 66.253906 2.902344 72.300781 6.347656 C 75.265625 8.039062 77.3125 10.914062 78.375 14.886719 C 79.507812 19.117188 79.445312 24.644531 78.207031 30.925781 C 89.53125 34.988281 96 41.179688 96 48 C 96 54.820312 89.53125 61.011719 78.207031 65.074219 C 79.449219 71.355469 79.507812 76.882812 78.375 81.113281 C 77.3125 85.085938 75.269531 87.960938 72.304688 89.652344 C 66.25 93.101562 57.46875 90.589844 48 82.488281 C 41.335938 88.191406 35.050781 91.199219 29.765625 91.199219 Z M 29.761719 7.199219 C 27.953125 7.199219 26.3125 7.613281 24.886719 8.425781 C 22.496094 9.792969 20.832031 12.175781 19.941406 15.507812 C 18.84375 19.605469 18.988281 25.121094 20.351562 31.460938 L 20.578125 32.503906 L 19.566406 32.851562 C 8.65625 36.550781 2.398438 42.074219 2.398438 48 C 2.398438 53.925781 8.65625 59.449219 19.5625 63.152344 L 20.574219 63.496094 L 20.347656 64.542969 C 18.984375 70.882812 18.839844 76.398438 19.9375 80.492188 C 20.828125 83.828125 22.492188 86.210938 24.886719 87.578125 C 26.316406 88.386719 27.957031 88.800781 29.761719 88.800781 L 29.765625 88.800781 C 34.59375 88.800781 40.785156 85.675781 47.207031 80 L 48 79.296875 L 48.792969 80 C 55.210938 85.667969 61.40625 88.792969 66.234375 88.792969 C 68.042969 88.792969 69.6875 88.378906 71.117188 87.566406 C 73.503906 86.203125 75.164062 83.824219 76.054688 80.492188 C 77.15625 76.394531 77.011719 70.882812 75.644531 64.542969 L 75.421875 63.496094 L 76.433594 63.152344 C 87.34375 59.449219 93.601562 53.925781 93.601562 48 C 93.601562 42.070312 87.34375 36.550781 76.433594 32.847656 L 75.421875 32.503906 L 75.648438 31.457031 C 77.011719 25.117188 77.15625 19.601562 76.058594 15.507812 C 75.164062 12.171875 73.503906 9.792969 71.113281 8.429688 C 69.683594 7.617188 68.042969 7.203125 66.238281 7.203125 C 61.410156 7.203125 55.21875 10.328125 48.796875 16.003906 L 48.003906 16.707031 L 47.207031 16.003906 C 40.785156 10.328125 34.589844 7.199219 29.761719 7.199219 Z M 29.761719 86.398438 C 28.378906 86.398438 27.136719 86.09375 26.078125 85.492188 C 24.265625 84.453125 22.976562 82.5625 22.253906 79.871094 C 21.277344 76.203125 21.402344 71.207031 22.621094 65.417969 L 22.878906 64.1875 L 24.097656 64.503906 C 27.914062 65.5 32.058594 66.246094 36.421875 66.722656 L 36.941406 66.78125 L 37.253906 67.199219 C 39.832031 70.683594 42.574219 73.902344 45.40625 76.773438 L 46.304688 77.683594 L 45.34375 78.523438 C 39.511719 83.601562 33.980469 86.398438 29.761719 86.398438 Z M 24.726562 67.136719 C 23.605469 72.03125 23.570312 76.199219 24.574219 79.246094 C 25.242188 81.265625 26.027344 82.699219 27.265625 83.40625 C 30.371094 85.179688 36.417969 82.835938 42.800781 77.535156 C 40.324219 74.941406 37.917969 72.09375 35.640625 69.046875 C 31.816406 68.609375 28.152344 67.96875 24.726562 67.136719 Z M 66.238281 86.394531 C 62.019531 86.394531 56.488281 83.597656 50.660156 78.519531 L 49.695312 77.683594 L 50.59375 76.773438 C 53.4375 73.890625 56.179688 70.671875 58.738281 67.203125 L 59.050781 66.78125 L 59.574219 66.722656 C 63.941406 66.246094 68.089844 65.5 71.902344 64.503906 L 73.125 64.1875 L 73.378906 65.417969 C 74.597656 71.210938 74.722656 76.207031 73.742188 79.871094 C 73.019531 82.558594 71.734375 84.449219 69.929688 85.480469 C 68.863281 86.089844 67.621094 86.394531 66.238281 86.394531 Z M 53.199219 77.535156 C 59.582031 82.832031 65.609375 85.175781 68.738281 83.398438 C 69.96875 82.695312 70.753906 81.265625 71.417969 79.25 C 72.433594 76.199219 72.390625 72.03125 71.269531 67.136719 C 67.84375 67.96875 64.179688 68.609375 60.351562 69.050781 C 58.089844 72.085938 55.6875 74.929688 53.199219 77.535156 Z M 48 76.066406 L 47.148438 75.203125 C 45.292969 73.328125 43.484375 71.304688 41.777344 69.183594 L 40.097656 67.105469 L 42.765625 67.230469 C 46.199219 67.394531 49.800781 67.394531 53.230469 67.230469 L 55.898438 67.105469 L 54.222656 69.183594 C 52.519531 71.292969 50.714844 73.316406 48.855469 75.199219 Z M 45.355469 69.730469 C 46.21875 70.730469 47.101562 71.703125 48 72.636719 C 48.898438 71.699219 49.777344 70.726562 50.640625 69.730469 C 48.894531 69.773438 47.105469 69.773438 45.355469 69.730469 Z M 48 64.964844 C 44.917969 64.964844 41.828125 64.832031 38.816406 64.570312 L 38.257812 64.523438 L 37.9375 64.0625 C 36.207031 61.597656 34.570312 59.050781 33.078125 56.492188 C 31.589844 53.945312 30.175781 51.265625 28.871094 48.511719 L 28.625 48 L 28.871094 47.488281 C 30.175781 44.734375 31.589844 42.050781 33.078125 39.507812 C 34.589844 36.917969 36.179688 34.445312 37.941406 31.933594 L 38.261719 31.476562 L 38.820312 31.429688 C 44.839844 30.90625 51.160156 30.90625 57.175781 31.429688 L 57.734375 31.476562 L 58.054688 31.9375 C 59.824219 34.457031 61.414062 36.933594 62.914062 39.507812 C 64.414062 42.074219 65.832031 44.757812 67.125 47.488281 L 67.367188 48 L 67.125 48.511719 C 65.832031 51.242188 64.414062 53.929688 62.914062 56.496094 C 61.414062 59.070312 59.824219 61.546875 58.054688 64.066406 L 57.734375 64.523438 L 57.175781 64.570312 C 54.167969 64.832031 51.082031 64.964844 48 64.964844 Z M 39.578125 62.226562 C 45.121094 62.675781 50.882812 62.675781 56.414062 62.226562 C 58.015625 59.921875 59.46875 57.644531 60.847656 55.285156 C 62.21875 52.9375 63.515625 50.492188 64.710938 48 C 63.515625 45.507812 62.21875 43.0625 60.847656 40.714844 C 59.46875 38.355469 58.015625 36.078125 56.414062 33.773438 C 50.878906 33.324219 45.109375 33.324219 39.582031 33.773438 C 37.988281 36.070312 36.53125 38.347656 35.144531 40.71875 C 33.789062 43.042969 32.488281 45.488281 31.28125 48 C 32.488281 50.507812 33.789062 52.957031 35.144531 55.285156 C 36.515625 57.625 38.007812 59.957031 39.578125 62.226562 Z M 60.90625 64.199219 L 62.363281 61.945312 C 63.257812 60.5625 64.136719 59.15625 64.988281 57.707031 C 65.867188 56.203125 66.6875 54.695312 67.472656 53.1875 L 68.6875 50.863281 L 69.652344 53.300781 C 70.625 55.757812 71.480469 58.246094 72.191406 60.695312 L 72.53125 61.882812 L 71.339844 62.191406 C 68.898438 62.824219 66.28125 63.363281 63.558594 63.789062 Z M 68.347656 56.640625 C 67.933594 57.398438 67.503906 58.160156 67.0625 58.917969 C 66.65625 59.609375 66.246094 60.289062 65.828125 60.960938 C 67.097656 60.71875 68.332031 60.457031 69.527344 60.171875 C 69.164062 58.996094 68.773438 57.816406 68.347656 56.640625 Z M 35.089844 64.199219 L 32.4375 63.785156 C 29.710938 63.359375 27.09375 62.824219 24.660156 62.1875 L 23.46875 61.878906 L 23.808594 60.695312 C 24.515625 58.253906 25.367188 55.769531 26.34375 53.304688 L 27.308594 50.863281 L 28.523438 53.191406 C 29.308594 54.699219 30.128906 56.207031 31.003906 57.707031 C 31.855469 59.160156 32.738281 60.566406 33.632812 61.949219 Z M 26.46875 60.164062 C 27.660156 60.453125 28.894531 60.714844 30.160156 60.957031 C 29.742188 60.285156 29.332031 59.605469 28.929688 58.914062 C 28.484375 58.160156 28.0625 57.402344 27.644531 56.640625 C 27.222656 57.820312 26.828125 58.996094 26.46875 60.164062 Z M 74.832031 61.203125 L 74.480469 59.992188 C 73.410156 56.277344 71.976562 52.410156 70.230469 48.492188 L 70.007812 48 L 70.230469 47.511719 C 71.976562 43.597656 73.410156 39.726562 74.484375 36.007812 L 74.835938 34.796875 L 76.03125 35.207031 C 85.527344 38.472656 91.199219 43.257812 91.199219 48 C 91.199219 52.746094 85.527344 57.527344 76.027344 60.792969 Z M 72.636719 48 C 74.148438 51.425781 75.417969 54.816406 76.425781 58.101562 C 83.984375 55.292969 88.800781 51.390625 88.800781 48 C 88.800781 44.609375 83.984375 40.707031 76.425781 37.898438 C 75.417969 41.1875 74.144531 44.578125 72.636719 48 Z M 21.160156 61.203125 L 19.96875 60.792969 C 10.472656 57.523438 4.800781 52.742188 4.800781 48 C 4.800781 43.257812 10.472656 38.476562 19.96875 35.207031 L 21.160156 34.796875 L 21.511719 36.007812 C 22.589844 39.738281 24.019531 43.609375 25.765625 47.511719 L 25.988281 48 L 25.765625 48.488281 C 24.019531 52.390625 22.589844 56.261719 21.511719 59.992188 Z M 19.570312 37.898438 C 12.015625 40.707031 7.199219 44.613281 7.199219 48 C 7.199219 51.386719 12.015625 55.292969 19.570312 58.101562 C 20.582031 54.800781 21.851562 51.414062 23.359375 48 C 21.851562 44.585938 20.582031 41.199219 19.570312 37.898438 Z M 27.308594 45.140625 L 26.34375 42.699219 C 25.367188 40.234375 24.511719 37.75 23.808594 35.308594 L 23.464844 34.125 L 24.65625 33.816406 C 27.097656 33.183594 29.710938 32.644531 32.4375 32.21875 L 35.09375 31.808594 L 33.628906 34.0625 C 32.734375 35.441406 31.851562 36.847656 31 38.300781 C 30.121094 39.800781 29.304688 41.308594 28.519531 42.816406 Z M 26.46875 35.835938 C 26.828125 37.003906 27.222656 38.179688 27.644531 39.359375 C 28.0625 38.601562 28.488281 37.84375 28.929688 37.085938 C 29.332031 36.394531 29.742188 35.71875 30.160156 35.042969 C 28.894531 35.28125 27.660156 35.546875 26.46875 35.835938 Z M 68.6875 45.140625 L 67.472656 42.816406 C 66.6875 41.304688 65.867188 39.800781 64.988281 38.296875 C 64.140625 36.84375 63.257812 35.4375 62.363281 34.054688 L 60.90625 31.804688 L 63.554688 32.21875 C 66.28125 32.640625 68.902344 33.179688 71.335938 33.816406 L 72.53125 34.125 L 72.1875 35.3125 C 71.476562 37.757812 70.625 40.246094 69.652344 42.707031 Z M 65.832031 35.042969 C 66.246094 35.714844 66.660156 36.394531 67.0625 37.085938 C 67.507812 37.84375 67.933594 38.601562 68.351562 39.363281 C 68.773438 38.183594 69.167969 37.003906 69.527344 35.835938 C 68.335938 35.546875 67.097656 35.28125 65.832031 35.042969 Z M 73.117188 31.816406 L 71.898438 31.5 C 68.089844 30.503906 63.941406 29.757812 59.570312 29.28125 L 59.046875 29.222656 L 58.734375 28.800781 C 56.167969 25.324219 53.425781 22.101562 50.589844 19.230469 L 49.691406 18.320312 L 50.65625 17.480469 C 58.402344 10.734375 65.636719 8.074219 69.917969 10.519531 C 71.730469 11.554688 73.015625 13.441406 73.738281 16.128906 C 74.71875 19.796875 74.589844 24.792969 73.371094 30.585938 Z M 60.351562 26.949219 C 64.1875 27.390625 67.847656 28.03125 71.269531 28.863281 C 72.511719 24.289062 72.6875 20.238281 71.421875 16.75 C 70.695312 14.757812 69.972656 13.304688 68.734375 12.601562 C 65.621094 10.824219 59.585938 13.167969 53.199219 18.464844 C 55.679688 21.058594 58.082031 23.910156 60.351562 26.949219 Z M 22.882812 31.816406 L 22.621094 30.585938 C 21.402344 24.792969 21.277344 19.796875 22.257812 16.132812 C 22.980469 13.4375 24.265625 11.546875 26.074219 10.515625 C 30.371094 8.066406 37.597656 10.734375 45.347656 17.484375 L 46.3125 18.324219 L 45.414062 19.234375 C 42.570312 22.105469 39.832031 25.328125 37.261719 28.800781 L 36.949219 29.226562 L 36.425781 29.28125 C 32.0625 29.761719 27.914062 30.507812 24.097656 31.503906 Z M 29.761719 12 C 28.796875 12 27.957031 12.199219 27.261719 12.597656 C 26.027344 13.300781 25.402344 14.796875 24.574219 16.753906 C 23.28125 19.8125 23.5 23.976562 24.726562 28.863281 C 28.15625 28.03125 31.816406 27.390625 35.644531 26.949219 C 37.914062 23.910156 40.320312 21.0625 42.804688 18.46875 C 37.839844 14.34375 33.128906 12 29.761719 12 Z M 40.101562 28.894531 L 41.777344 26.816406 C 43.484375 24.703125 45.289062 22.679688 47.148438 20.796875 L 48 19.933594 L 48.851562 20.796875 C 50.71875 22.6875 52.523438 24.710938 54.21875 26.8125 L 55.890625 28.890625 L 53.226562 28.765625 C 49.796875 28.605469 46.195312 28.605469 42.765625 28.765625 Z M 48 26.238281 C 48.886719 26.238281 49.769531 26.25 50.640625 26.269531 C 49.785156 25.273438 48.898438 24.304688 48.003906 23.363281 C 47.105469 24.300781 46.222656 25.273438 45.359375 26.269531 C 46.234375 26.25 47.113281 26.238281 48 26.238281 Z M 48 26.238281 "/>
</g>
</svg>
